<svg xmlns="http://www.w3.org/2000/svg" version="1.1" xmlns:xlink="http://www.w3.org/1999/xlink" xmlns:svgjs="http://svgjs.dev/svgjs" width="2000" height="1247" viewBox="0 0 2000 1247"><g transform="matrix(1,0,0,1,-1.2121212121212466,0.5048582995951847)"><svg viewBox="0 0 396 247" data-background-color="#ffffff" preserveAspectRatio="xMidYMid meet" height="1247" width="2000" xmlns="http://www.w3.org/2000/svg" xmlns:xlink="http://www.w3.org/1999/xlink"><g id="tight-bounds" transform="matrix(1,0,0,1,0.2400000000000091,-0.09999999999999432)"><svg viewBox="0 0 395.52 247.2" height="247.2" width="395.52"><g><svg></svg></g><g><svg viewBox="0 0 395.52 247.2" height="247.2" width="395.52"><g transform="matrix(1,0,0,1,75.54432,100.46964698606833)"><svg viewBox="0 0 244.43135999999998 46.26070602786333" height="46.26070602786333" width="244.43135999999998"><g><svg viewBox="0 0 333.2609460719536 63.07245787448165" height="46.26070602786333" width="244.43135999999998"><g transform="matrix(1,0,0,1,0,8.71696053113314)"><svg viewBox="0 0 244.43135999999998 45.63853681221537" height="45.63853681221537" width="244.43135999999998"><g id="textblocktransform"><svg viewBox="0 0 244.43135999999998 45.63853681221537" height="45.63853681221537" width="244.43135999999998" id="textblock"><g><svg viewBox="0 0 244.43135999999998 45.63853681221537" height="45.63853681221537" width="244.43135999999998"><g transform="matrix(1,0,0,1,0,0)"><svg width="244.43135999999998" viewBox="3.55 -33.9 185.38 34.85" height="45.63853681221537" data-palette-color="#0080ff"><g class="wordmark-text-0" data-fill-palette-color="primary" id="text-0"><path d="M8.85 0.75Q8.05 0.75 7.13 0.23 6.2-0.3 5.6-1L5.6-1Q4.9-1.9 4.5-6.05 4.1-10.2 4-15.55L4-15.55Q4-16.75 3.95-17.35L3.95-17.35Q3.85-29.9 3.55-32.2L3.55-32.2 3.85-32.9Q5-32.75 5-30.15L5-30.15 5.15-16.9Q5.15-15.5 5.4-11.6L5.4-11.6Q5.7-8.1 5.7-6.3L5.7-6.3Q5.7-0.6 9.45-0.6L9.45-0.6Q11.75-0.6 12.4-11.1L12.4-11.1 12.45-12.1Q12.8-25.85 12.8-32.45L12.8-32.45 12.75-32.9Q12.7-33.1 12.7-33.35L12.7-33.35Q12.7-33.9 13.55-33.9L13.55-33.9Q14.15-33.9 14.3-33.6L14.3-33.6Q14.4-33.1 14.4-31.85L14.4-31.85Q14.4-28.05 14.1-26.75L14.1-26.75 14.15-26.45Q14.15-25.8 14-24.45L14-24.45 13.9-22.45 13.9-21.95Q13.95-21.75 13.95-21.45L13.95-21.45Q13.85-20.25 13.85-19.15L13.85-19.15Q13.8-18.8 13.8-18.05L13.8-18.05Q13.7-13.3 13.6-9.8L13.6-9.8Q13.45-5.45 12.4-2.45L12.4-2.45Q11.3 0.75 8.85 0.75L8.85 0.75ZM30.25 0.85L29.55 0.6Q28.95-0.05 28.25-2.85 27.55-5.65 26.95-9.15L26.95-9.15Q26.55-12 25.8-14.8L25.8-14.8Q25.2-17.3 24.65-17.3L24.65-17.3 24.5-17.3Q23.4-17.3 23.4-16.6L23.4-16.6Q23.4-13 23.8-5.65L23.8-5.65Q24-1.15 24.25-0.4L24.25-0.4 23.85 0.45 23.15 0.45 22.75 0.05Q21.95-23.05 21.95-31.45L21.95-31.45Q21.95-32 22.02-32.35 22.1-32.7 22.35-33L22.35-33Q22.55-33.35 23.05-33.35L23.05-33.35Q25.6-33.35 27.15-32.1 28.7-30.85 28.7-28.5L28.7-28.5 28.7-24.85Q28.7-23.9 28.07-22.3 27.45-20.7 26.7-19.35L26.7-19.35 26.05-18.1Q26.6-15.55 28.22-8.93 29.85-2.3 30-1.9L30-1.9Q30.05-1.85 30.12-1.65 30.2-1.45 30.45-1.05L30.45-1.05Q30.8-0.35 30.8 0.15L30.8 0.15Q30.8 0.85 30.25 0.85L30.25 0.85ZM23.65-18.55Q24.6-18.55 25.35-19.5 26.1-20.45 26.55-21.95L26.55-21.95Q27.35-25 27.35-26.8L27.35-26.8Q27.35-27.95 27.22-28.7 27.1-29.45 26.8-30.3L26.8-30.3Q26.2-32.05 23.95-32.05L23.95-32.05Q23.7-32.05 23.55-31.63 23.4-31.2 23.4-30.75L23.4-30.75Q23.4-27.4 23.5-24.7L23.5-24.7Q23.55-22 23.55-18.65L23.55-18.65 23.65-18.55ZM37.3 0.65Q36.59 0.65 36.45-0.5L36.45-0.5Q36.55-0.8 36.55-2.15L36.55-2.15Q36.55-6.75 36.7-15.8L36.7-15.8Q36.84-24.8 36.84-28.8L36.84-28.8 36.95-30.6 37.09-32.1Q37.09-32.45 37.45-32.45L37.45-32.45Q37.7-32.45 38.15-32.3L38.15-32.3 38.3-32.25Q38.3-31.15 38.25-30.25L38.25-30.25 38.25-28.3 38.25-22.85Q38.3-20.45 38.3-17.4L38.3-17.4Q38.25-17.15 38.25-16.3L38.25-16.3 38.2-15.25Q38.15-14.25 38.15-13.2L38.15-13.2Q38.15-12.05 38.2-11.1L38.2-11.1 38.25-8.95 38.09-8.55 38.15-8.6Q38.15-8.45 38.09-8.4L38.09-8.4 38.09-8.2Q38.09-7.8 38.25-7.5L38.25-7.5 38.09-2.7 38.09-2.4Q38.09-1.55 38.15-1.4L38.15-1.4Q38.15-1.15 38.4-1.15L38.4-1.15 41-1.05Q42.15-1.05 42.57-1.03 43-1 43.09-1L43.09-1 43.25-1Q43.5-1 43.75-0.73 44-0.45 44-0.15L44-0.15Q44 0.45 43.2 0.5L43.2 0.5Q42.34 0.45 39.05 0.45L39.05 0.45 39.15 0.5Q38.65 0.5 38.2 0.55L38.2 0.55Q37.8 0.65 37.3 0.65L37.3 0.65Z" fill="#0080ff" data-fill-palette-color="primary"></path><path d="M56.7 0.6Q56.15 0.5 55.65 0.18 55.15-0.15 55.1-0.6L55.1-0.6 55.35-1Q55.55-1 56.25-0.85L56.25-0.85Q56.8-0.65 57.15-0.65L57.15-0.65Q58.25-0.65 59.1-1.53 59.95-2.4 60.4-3.8L60.4-3.8Q61.1-6.4 61.1-8.7L61.1-8.7Q61.1-12.15 59-16.1L59-16.1Q57.7-18.4 57-19.75 56.3-21.1 55.75-22.85L55.75-22.85Q55.1-24.9 55.1-26.8L55.1-26.8Q55.1-28.6 56-31.05L56-31.05Q56.45-32.2 57.27-32.93 58.1-33.65 59.05-33.65L59.05-33.65Q59.7-33.65 60.32-33.2 60.95-32.75 60.95-32.25L60.95-32.25Q60.95-31.85 60.3-31.85L60.3-31.85Q60.1-31.85 59.8-32L59.8-32Q59.5-32.15 59.25-32.15L59.25-32.15Q58.5-32.15 57.9-31.55 57.3-30.95 57-30L57-30Q56.4-28.15 56.4-26.6L56.4-26.6Q56.4-25.65 56.65-24.65L56.65-24.65Q56.7-24.35 56.75-24.15 56.8-23.95 56.8-23.85L56.8-23.85 57.1-22.85 57.35-21.95 57.75-21.05Q57.9-20.7 58.07-20.43 58.25-20.15 58.4-19.9L58.4-19.9 59-18.85Q59.2-18.55 59.85-17.43 60.5-16.3 61.05-15.05L61.05-15.05Q61.55-14 61.8-13.08 62.05-12.15 62.25-10.85L62.25-10.85Q62.4-9.6 62.4-8.1L62.4-8.1Q62.4-5.7 61.75-3.6L61.75-3.6Q60.85-1.1 59.15-0.1L59.15-0.1Q58.2 0.5 56.95 0.5L56.95 0.5 56.7 0.6ZM60.65-32L60.7-32Q60.7-32.05 60.65-32.05L60.65-32.05 60.65-32ZM77.45 0.55Q77.45 0.05 75.95 0.05L75.95 0.05Q75.7-9.2 75.7-13.35L75.7-13.35 75.55-13.55 75.75-14Q75.75-14.9 75.55-15.85L75.55-15.85 74.8-16.05Q74.35-15.9 73.8-15.9L73.8-15.9Q73.4-15.9 72.15-16.15L72.15-16.15Q71.3-16.4 70.6-16.4L70.6-16.4 70.05-16.2Q70.05-14.45 70-13.05L70-13.05Q69.95-11.65 69.95-9.9L69.95-9.9 70.05-9.7Q70.05-8.3 70.2-5.5L70.2-5.5Q70.35-2.75 70.35-1.35L70.35-1.35Q70.35-0.8 70.15-0.43 69.95-0.05 69.55-0.05L69.55-0.05Q68.45-0.05 68.45-3.05L68.45-3.05Q68.45-5.6 68.5-7.65L68.5-7.65 68.55-12.2Q68.55-16.75 68.4-17.1L68.4-17.1Q68.65-17.6 68.65-20.4L68.65-20.4Q68.65-22.8 68.45-26.25L68.45-26.25 68.35-28.2 68.25-32.1Q68.25-32.45 68.5-32.75 68.75-33.05 69.1-33.05L69.1-33.05Q70.1-33.05 70.1-30.15L70.1-30.15Q70.1-26.75 70.05-24L70.05-24Q69.95-21.25 69.95-17.95L69.95-17.95Q69.95-17.35 73.75-17.35L73.75-17.35 73.95-17.35Q74.9-17.35 75.32-17.73 75.75-18.1 75.75-19L75.75-19Q75.75-21.65 75.4-25.9L75.4-25.9Q75.1-30.5 75.1-32.8L75.1-32.8Q75.1-33.1 75.35-33.33 75.6-33.55 75.95-33.55L75.95-33.55 76.4-33.4Q76.75-33.35 76.84-33.25L76.84-33.25Q76.84-29.35 77.15-21.6L77.15-21.6Q77.45-13.8 77.45-9.9L77.45-9.9Q77.45-4 77.8 0L77.8 0 77.45 0.55ZM74.3-17.95L74.3-18.05 74.4-17.95 74.3-17.95ZM89.99 0.95Q84.14 0.95 84.14-17.45L84.14-17.45 84.14-19.2Q84.14-33.15 87.74-33.15L87.74-33.15Q87.99-33.15 88.44-33L88.44-33Q90.04-32.45 91.59-32.3L91.59-32.3Q92.54-32.1 93.49-30.35L93.49-30.35Q94.54-28.55 95.07-25.6 95.59-22.65 95.59-19.55L95.59-19.55 95.49-19.3Q95.49-17.65 95.54-16.35L95.54-16.35 95.59-13.35Q95.59-10.8 95.39-8.75L95.39-8.75Q95.09-5.65 94.39-3.4L94.39-3.4Q93.94-2.05 93.37-1.15 92.79-0.25 91.94 0.35L91.94 0.35Q91.14 0.95 89.99 0.95L89.99 0.95ZM89.79-0.5Q91.74-0.5 92.69-3.25L92.69-3.25Q93.64-6.05 93.84-8.95L93.84-8.95Q94.04-11.95 94.04-13.75L94.04-13.75Q94.04-15.75 93.74-19.65L93.74-19.65Q93.49-24 93.49-25.55L93.49-25.55 93.29-25.95 93.39-26.2Q93.39-28.4 92.17-30 90.94-31.6 89.19-31.6L89.19-31.6Q86.89-31.6 86.44-29.4L86.44-29.4Q86.34-28.65 86.24-27.25L86.24-27.25Q86.24-23.55 85.94-22.2L85.94-22.2Q85.94-21.45 85.79-19.85L85.79-19.85 85.69-17.5Q85.69-16.4 85.74-15.55L85.74-15.55 85.79-13.55Q85.79-11.2 86.19-8.15L86.19-8.15Q86.49-5.9 86.89-4.35 87.29-2.8 88.04-1.7L88.04-1.7Q88.79-0.5 89.79-0.5L89.79-0.5ZM110.44 0.85L109.74 0.6Q109.14-0.05 108.44-2.85 107.74-5.65 107.14-9.15L107.14-9.15Q106.74-12 105.99-14.8L105.99-14.8Q105.39-17.3 104.84-17.3L104.84-17.3 104.69-17.3Q103.59-17.3 103.59-16.6L103.59-16.6Q103.59-13 103.99-5.65L103.99-5.65Q104.19-1.15 104.44-0.4L104.44-0.4 104.04 0.45 103.34 0.45 102.94 0.05Q102.14-23.05 102.14-31.45L102.14-31.45Q102.14-32 102.22-32.35 102.29-32.7 102.54-33L102.54-33Q102.74-33.35 103.24-33.35L103.24-33.35Q105.79-33.35 107.34-32.1 108.89-30.85 108.89-28.5L108.89-28.5 108.89-24.85Q108.89-23.9 108.27-22.3 107.64-20.7 106.89-19.35L106.89-19.35 106.24-18.1Q106.79-15.55 108.42-8.93 110.04-2.3 110.19-1.9L110.19-1.9Q110.24-1.85 110.32-1.65 110.39-1.45 110.64-1.05L110.64-1.05Q110.99-0.35 110.99 0.15L110.99 0.15Q110.99 0.85 110.44 0.85L110.44 0.85ZM103.84-18.55Q104.79-18.55 105.54-19.5 106.29-20.45 106.74-21.95L106.74-21.95Q107.54-25 107.54-26.8L107.54-26.8Q107.54-27.95 107.42-28.7 107.29-29.45 106.99-30.3L106.99-30.3Q106.39-32.05 104.14-32.05L104.14-32.05Q103.89-32.05 103.74-31.63 103.59-31.2 103.59-30.75L103.59-30.75Q103.59-27.4 103.69-24.7L103.69-24.7Q103.74-22 103.74-18.65L103.74-18.65 103.84-18.55ZM120.44-0.3L119.89-0.7 119.84-2.55Q119.79-3.35 119.79-4.35L119.79-4.35Q119.79-4.85 119.84-5.2L119.84-5.2 119.89-6.1Q119.89-6.6 119.69-7.3L119.69-7.3Q119.69-10.65 119.19-19.75L119.19-19.75Q118.69-28.55 118.64-31.7L118.64-31.7Q115.54-31.7 114.49-31.85L114.49-31.85Q113.49-32.1 113.49-32.65L113.49-32.65Q113.74-33.2 114.44-33.2L114.44-33.2Q115.94-33.2 118.79-33L118.79-33Q121.39-32.75 123.14-32.75L123.14-32.75 124.19-32.75 125.24-32.8Q126.14-32.8 126.14-32.15L126.14-32.15Q126.14-31.85 125.81-31.68 125.49-31.5 125.04-31.5L125.04-31.5Q124.04-31.5 122.94-31.6L122.94-31.6 120.79-31.7Q120.59-31.7 120.59-31.55L120.59-31.55Q120.54-31.4 120.54-30.6L120.54-30.6Q120.54-25.75 121.14-15.9L121.14-15.9Q121.69-5.7 121.69-1.25L121.69-1.25Q121.69-0.9 121.26-0.6 120.84-0.3 120.44-0.3L120.44-0.3ZM132.39 0.65Q131.49 0.65 131.39-0.4L131.39-0.4 131.39-1.05Q131.44-1.3 131.44-1.65L131.44-1.65 131.24-1.85Q131.64-2.9 131.64-3.9L131.64-3.9Q131.64-5.05 131.49-7.2L131.49-7.2 131.39-10.5Q131.39-13 131.54-18L131.54-18Q131.74-22.45 131.74-25.55L131.74-25.55 131.64-28.55Q131.54-29.9 131.54-31.55L131.54-31.55Q131.54-32.3 131.89-32.63 132.24-32.95 132.99-32.95L132.99-32.95Q133.49-32.95 133.79-32.65L133.79-32.65Q133.89-32.6 135.24-32.45L135.24-32.45Q136.49-32.3 137.39-32L137.39-32Q138.34-31.7 138.34-31.25L138.34-31.25Q138.34-30.75 137.39-30.25L137.39-30.25Q134.54-31.2 133.34-31.2L133.34-31.2 133.09-30.9Q133.14-30.45 133.14-28.75L133.14-28.75Q133.14-26.6 133.04-24.9L133.04-24.9Q132.99-23.15 132.99-21L132.99-21Q132.99-19.6 133.69-19.6L133.69-19.6 134.49-19.65Q134.89-19.7 135.34-19.7L135.34-19.7Q137.29-19.7 137.29-18.8L137.29-18.8Q137.29-18.25 137.04-17.88 136.79-17.5 136.29-17.5L136.29-17.5Q135.54-17.5 135.14-17.9L135.14-17.9 133.54-18.15 133.29-18.15 133.04-17.9 133.04-17.75Q133.14-16.9 133.14-13.8L133.14-13.8Q133.14-11.85 133.09-10.25L133.09-10.25 133.04-6.7Q133.04-4.75 133.19-2.7L133.19-2.7Q133.24-1.55 133.69-1.18 134.14-0.8 135.34-0.8L135.34-0.8 136.24-0.85Q136.69-0.9 137.24-0.9L137.24-0.9Q138.69-0.9 138.69-0.25L138.69-0.25Q138.69 0.65 136.49 0.65L136.49 0.65 132.39 0.65ZM156.98 0.2Q156.58 0.2 156.41-0.1 156.23-0.4 156.08-1L156.08-1Q156.03-1.4 155.88-1.7L155.88-1.7 155.93-1.85Q155.53-4.2 154.23-7.6L154.23-7.6 153.33-10.2Q153.23-10.3 152.38-12.75L152.38-12.75 151.98-13.95Q147.48-27.85 146.33-29L146.33-29Q145.93-27.65 145.93-25.5L145.93-25.5Q145.93-24.35 145.98-23.5L145.98-23.5 146.03-21.55 145.98-20.35Q145.93-19.8 145.93-19.15L145.93-19.15Q145.93-18.05 146.03-17.25L146.03-17.25Q146.13-15.65 146.13-15.65L146.13-15.65 145.98-15.65Q145.98-7.3 146.33-6.45L146.33-6.45 146.33-1.95Q146.53-1.55 146.53-0.9L146.53-0.9Q146.53-0.5 146.26-0.2 145.98 0.1 145.58 0.1L145.58 0.1Q144.53 0.1 144.53-2.6L144.53-2.6 144.63-4.2Q144.73-4.95 144.73-5.85L144.73-5.85Q144.73-8.25 144.58-13.05L144.58-13.05Q144.43-17.85 144.43-20.25L144.43-20.25Q144.43-21.7 144.58-24.7L144.58-24.7Q144.73-27.65 144.73-29.1L144.73-29.1 144.73-29.75Q144.73-32.2 145.63-32.95L145.63-32.95 145.78-32.8 146.28-32.9Q146.48-32.85 146.73-32.6L146.73-32.6Q146.93-32.4 146.93-32.15L146.93-32.15 147.03-31.85Q147.03-31.75 147.06-31.68 147.08-31.6 147.08-31.6L147.08-31.6Q147.88-28.05 150.68-21.65L150.68-21.65Q153.53-14.9 154.23-12.7L154.23-12.7Q154.73-10.95 155.03-9.6L155.03-9.6Q155.98-5.35 157.28-3.05L157.28-3.05 157.38-3.2Q158.53-14.3 158.53-30.45L158.53-30.45 158.48-31.05Q158.43-31.3 158.43-31.7L158.43-31.7Q158.43-32.75 159.13-32.75L159.13-32.75Q159.58-32.75 159.91-32.3 160.23-31.85 160.23-31.3L160.23-31.3 160.23-27.95 159.98-27.55Q159.98-22.8 159.43-11.95 158.88-1.1 158.38-0.15L158.38-0.15 157.53 0.05 157.53 0.1 157.48 0.05 156.98 0.2ZM168.18 0.65Q167.28 0.65 167.18-0.4L167.18-0.4 167.18-1.05Q167.23-1.3 167.23-1.65L167.23-1.65 167.03-1.85Q167.43-2.9 167.43-3.9L167.43-3.9Q167.43-5.05 167.28-7.2L167.28-7.2 167.18-10.5Q167.18-13 167.33-18L167.33-18Q167.53-22.45 167.53-25.55L167.53-25.55 167.43-28.55Q167.33-29.9 167.33-31.55L167.33-31.55Q167.33-32.3 167.68-32.63 168.03-32.95 168.78-32.95L168.78-32.95Q169.28-32.95 169.58-32.65L169.58-32.65Q169.68-32.6 171.03-32.45L171.03-32.45Q172.28-32.3 173.18-32L173.18-32Q174.13-31.7 174.13-31.25L174.13-31.25Q174.13-30.75 173.18-30.25L173.18-30.25Q170.33-31.2 169.13-31.2L169.13-31.2 168.88-30.9Q168.93-30.45 168.93-28.75L168.93-28.75Q168.93-26.6 168.83-24.9L168.83-24.9Q168.78-23.15 168.78-21L168.78-21Q168.78-19.6 169.48-19.6L169.48-19.6 170.28-19.65Q170.68-19.7 171.13-19.7L171.13-19.7Q173.08-19.7 173.08-18.8L173.08-18.8Q173.08-18.25 172.83-17.88 172.58-17.5 172.08-17.5L172.08-17.5Q171.33-17.5 170.93-17.9L170.93-17.9 169.33-18.15 169.08-18.15 168.83-17.9 168.83-17.75Q168.93-16.9 168.93-13.8L168.93-13.8Q168.93-11.85 168.88-10.25L168.88-10.25 168.83-6.7Q168.83-4.75 168.98-2.7L168.98-2.7Q169.03-1.55 169.48-1.18 169.93-0.8 171.13-0.8L171.13-0.8 172.03-0.85Q172.48-0.9 173.03-0.9L173.03-0.9Q174.48-0.9 174.48-0.25L174.48-0.25Q174.48 0.65 172.28 0.65L172.28 0.65 168.18 0.65ZM188.38 0.85L187.68 0.6Q187.08-0.05 186.38-2.85 185.68-5.65 185.08-9.15L185.08-9.15Q184.68-12 183.93-14.8L183.93-14.8Q183.33-17.3 182.78-17.3L182.78-17.3 182.63-17.3Q181.53-17.3 181.53-16.6L181.53-16.6Q181.53-13 181.93-5.65L181.93-5.65Q182.13-1.15 182.38-0.4L182.38-0.4 181.98 0.45 181.28 0.45 180.88 0.05Q180.08-23.05 180.08-31.45L180.08-31.45Q180.08-32 180.15-32.35 180.23-32.7 180.48-33L180.48-33Q180.68-33.35 181.18-33.35L181.18-33.35Q183.73-33.35 185.28-32.1 186.83-30.85 186.83-28.5L186.83-28.5 186.83-24.85Q186.83-23.9 186.2-22.3 185.58-20.7 184.83-19.35L184.83-19.35 184.18-18.1Q184.73-15.55 186.35-8.93 187.98-2.3 188.13-1.9L188.13-1.9Q188.18-1.85 188.25-1.65 188.33-1.45 188.58-1.05L188.58-1.05Q188.93-0.35 188.93 0.15L188.93 0.15Q188.93 0.85 188.38 0.85L188.38 0.85ZM181.78-18.55Q182.73-18.55 183.48-19.5 184.23-20.45 184.68-21.95L184.68-21.95Q185.48-25 185.48-26.8L185.48-26.8Q185.48-27.95 185.35-28.7 185.23-29.45 184.93-30.3L184.93-30.3Q184.33-32.05 182.08-32.05L182.08-32.05Q181.83-32.05 181.68-31.63 181.53-31.2 181.53-30.75L181.53-30.75Q181.53-27.4 181.63-24.7L181.63-24.7Q181.68-22 181.68-18.65L181.68-18.65 181.78-18.55Z" fill="#010c80" data-fill-palette-color="accent"></path></g></svg></g></svg></g></svg></g></svg></g><g transform="matrix(1,0,0,1,255.20552321648054,0)"><svg viewBox="0 0 78.05542285547305 63.07245787448165" height="63.07245787448165" width="78.05542285547305"><g><svg xmlns="http://www.w3.org/2000/svg" xmlns:xlink="http://www.w3.org/1999/xlink" version="1.1" x="0" y="0" viewBox="0 49.1 511.97510805067213 413.70000000000005" style="enable-background:new 0 0 512 512;" xml:space="preserve" height="63.07245787448165" width="78.05542285547305" class="icon-icon-0" data-fill-palette-color="accent" id="icon-0"><g fill="#010c80" data-fill-palette-color="accent"><path d="M112 358.7c23.2-9.7 48.1-15.2 73.7-16.5v-64.1h-85.1C101.6 306.9 105.5 334.3 112 358.7z" fill="#010c80" data-fill-palette-color="accent"></path><path d="M100.7 254.8h85.1v-64.6c-25.6-1.3-50.5-6.8-73.6-16.4C105.6 198.3 101.6 225.9 100.7 254.8z" fill="#010c80" data-fill-palette-color="accent"></path><path d="M119.2 151.4c20.9 9 43.4 14.2 66.6 15.5V70.1C158.7 77.1 134.8 107.8 119.2 151.4z" fill="#010c80" data-fill-palette-color="accent"></path><path d="M90.6 163.3c-14.4-8-27.9-17.7-40.3-28.8C21.2 166.8 2.7 208.7 0 254.8h77.4C78.3 221.7 82.9 190.7 90.6 163.3z" fill="#010c80" data-fill-palette-color="accent"></path><path d="M132.2 79.7c-24.3 8.5-46.4 21.6-65.4 38.3 9.7 8.6 20.1 16.1 31.1 22.5C107 116.2 118.6 95.6 132.2 79.7z" fill="#010c80" data-fill-palette-color="accent"></path><path d="M185.8 462.8v-97.3c-23.3 1.3-45.8 6.6-66.7 15.6C134.6 425 158.6 455.8 185.8 462.8z" fill="#010c80" data-fill-palette-color="accent"></path><path d="M233.1 101.5l0.9-7.6 7.4-2.2c0.2-0.1 0.4-0.1 0.6-0.2-8.8-9.5-19.9-18-32.9-21.4v97c9.5-0.5 18.8-1.8 28-3.7C230.3 128.1 233 102.1 233.1 101.5z" fill="#010c80" data-fill-palette-color="accent"></path><path d="M66.5 414.7c19 16.8 41.2 30 65.6 38.5-13.6-15.9-25.3-36.7-34.4-61.2C86.7 398.5 76.3 406 66.5 414.7z" fill="#010c80" data-fill-palette-color="accent"></path><path d="M77.4 278.1H0c2.7 46 21.1 87.8 50 120.1 12.5-11.2 26-21 40.5-29C82.9 341.9 78.3 311.1 77.4 278.1z" fill="#010c80" data-fill-palette-color="accent"></path><path d="M209.1 365.5v97.3c27.3-6.9 51.4-37.6 67-81.6C255 372.2 232.4 366.9 209.1 365.5z" fill="#010c80" data-fill-palette-color="accent"></path><path d="M317.1 151.9c6.3 29.7 23.3 67 66.7 94.3 43.4-27.3 60.4-64.6 66.7-94.3-24.6-9.7-47-20.4-66.7-32.2C364 131.5 341.7 142.3 317.1 151.9z" fill="#010c80" data-fill-palette-color="accent"></path><path d="M242.6 186.1c-11 2.3-22.2 3.7-33.5 4.3v64.4h66.7C259.3 231.8 249 208 242.6 186.1z" fill="#010c80" data-fill-palette-color="accent"></path><path d="M511.8 111.7c-73.1-22.6-112.3-49.6-128.1-62.6-15.8 13-54.9 40-128.1 62.6-1.3 30.5 2.6 144.3 128.1 200.3C509.2 256 513.2 142.2 511.8 111.7zM475.2 146.2c-5.6 37.1-25 88.7-85.6 123.6l-5.8 3.4-5.8-3.4c-60.6-34.9-80-86.5-85.6-123.7l-1.4-9.3 8.8-3.3c29.4-11 55.6-23.5 77.8-37.3l6.1-3.8 6.1 3.8c22.3 13.8 48.5 26.4 77.8 37.4l8.8 3.3L475.2 146.2z" fill="#010c80" data-fill-palette-color="accent"></path><path d="M294.1 278.1h-85.1v64.1c25.7 1.3 50.6 6.8 73.8 16.5C289.3 334.4 293.3 307.1 294.1 278.1z" fill="#010c80" data-fill-palette-color="accent"></path><path d="M316.5 298.1c-1.9 25.4-6.2 49.2-12.4 71 14.6 8.1 28.3 18 41 29.4 15.9-17.8 28.6-38.6 37.3-61.7l-3.2-1.4C354.3 324.9 333.7 312.1 316.5 298.1z" fill="#010c80" data-fill-palette-color="accent"></path><path d="M261.7 453.8c24.8-8.5 47.4-21.8 66.8-38.9-9.9-8.8-20.5-16.5-31.8-23C287.5 416.7 275.6 437.8 261.7 453.8z" fill="#010c80" data-fill-palette-color="accent"></path></g></svg></g></svg></g></svg></g></svg></g><g><path d="M245.816 0c68.262 0 123.6 55.338 123.6 123.6 0 68.262-55.338 123.6-123.6 123.6-58.959 0-108.277-41.282-120.624-96.518l1.547 0c12.319 54.396 60.955 95.009 119.077 95.009 67.429 0 122.091-54.662 122.09-122.091 0-67.429-54.662-122.091-122.09-122.091-58.122 0-106.758 40.613-119.077 95.009l-1.547 0c12.347-55.236 61.665-96.518 120.624-96.518z" fill="#0080ff" stroke="transparent" data-fill-palette-color="tertiary"></path></g></svg></g><defs></defs></svg><rect width="395.52" height="247.2" fill="none" stroke="none" visibility="hidden"></rect></g></svg></g></svg>